<svg width="150" height="150" viewBox="0 0 150 150" fill="none" xmlns="http://www.w3.org/2000/svg">
<circle cx="75" cy="75" r="74.5" stroke="#E9D4FF"/>
<g clip-path="url(#clip0_2_2149)">
<path opacity="0.2" d="M82.5 66C79.7152 66 77.0445 64.8938 75.0754 62.9246C73.1063 60.9555 72 58.2848 72 55.5L57.5625 66.4519C57.3992 66.5841 57.2654 66.7491 57.1699 66.9363C57.0744 67.1234 57.0193 67.3286 57.0082 67.5384C56.9971 67.7482 57.0301 67.9581 57.1053 68.1543C57.1804 68.3505 57.296 68.5288 57.4444 68.6775L78.7613 90H93C93.3978 90 93.7794 89.842 94.0607 89.5607C94.342 89.2794 94.5 88.8978 94.5 88.5V84.9263C94.4999 84.6479 94.4223 84.3751 94.2759 84.1383C94.1295 83.9016 93.9202 83.7102 93.6713 83.5856L88.3125 80.9025C86.5668 80.0316 85.0983 78.6915 84.0716 77.0326C83.0449 75.3737 82.5007 73.4615 82.5 71.5106V66Z" fill="#8F26FF"/>
<path d="M82.5 66C79.7152 66 77.0445 64.8938 75.0754 62.9246C73.1063 60.9555 72 58.2848 72 55.5L57.5625 66.4519C57.3992 66.5841 57.2654 66.7491 57.1699 66.9363C57.0744 67.1234 57.0193 67.3286 57.0082 67.5384C56.9971 67.7482 57.0301 67.9581 57.1053 68.1543C57.1804 68.3505 57.296 68.5288 57.4444 68.6775L78.7613 90H93C93.3978 90 93.7794 89.842 94.0607 89.5607C94.342 89.2794 94.5 88.8978 94.5 88.5V84.9263C94.4999 84.6479 94.4223 84.3751 94.2759 84.1383C94.1295 83.9016 93.9202 83.7102 93.6713 83.5856L88.3125 80.9025C86.5668 80.0316 85.0983 78.6915 84.0716 77.0326C83.0449 75.3737 82.5007 73.4615 82.5 71.5106V66Z" stroke="#8F26FF" stroke-width="2" stroke-linecap="round" stroke-linejoin="round"/>
<path d="M69.2457 72L61.05 63.8025" stroke="#8F26FF" stroke-width="2" stroke-linecap="round" stroke-linejoin="round"/>
<path d="M57 84H64.275" stroke="#8F26FF" stroke-width="2" stroke-linecap="round" stroke-linejoin="round"/>
<path d="M60 90H70.275" stroke="#8F26FF" stroke-width="2" stroke-linecap="round" stroke-linejoin="round"/>
</g>
<defs>
<clipPath id="clip0_2_2149">
<rect width="48" height="48" fill="white" transform="translate(51 51)"/>
</clipPath>
</defs>
</svg>
