<svg width="150" height="150" viewBox="0 0 150 150" fill="none" xmlns="http://www.w3.org/2000/svg">
<circle cx="75" cy="75" r="74.5" stroke="#E9D4FF"/>
<g clip-path="url(#clip0_2_2138)">
<path opacity="0.2" d="M57 70.5H66V90H57C56.6022 90 56.2206 89.842 55.9393 89.5607C55.658 89.2794 55.5 88.8978 55.5 88.5V72C55.5 71.6022 55.658 71.2206 55.9393 70.9393C56.2206 70.658 56.6022 70.5 57 70.5Z" fill="#8F26FF"/>
<path d="M57 70.5H66V90H57C56.6022 90 56.2206 89.842 55.9393 89.5607C55.658 89.2794 55.5 88.8978 55.5 88.5V72C55.5 71.6022 55.658 71.2206 55.9393 70.9393C56.2206 70.658 56.6022 70.5 57 70.5Z" stroke="#8F26FF" stroke-width="2" stroke-linecap="round" stroke-linejoin="round"/>
<path d="M66 70.5L73.5 55.5C75.0913 55.5 76.6174 56.1321 77.7426 57.2574C78.8679 58.3826 79.5 59.9087 79.5 61.5V66H91.5C91.9256 66.0001 92.3462 66.0908 92.734 66.2659C93.1219 66.4411 93.468 66.6968 93.7494 67.016C94.0309 67.3352 94.2412 67.7106 94.3664 68.1174C94.4916 68.5241 94.5288 68.9528 94.4756 69.375L92.2256 87.375C92.1343 88.0998 91.7816 88.7664 91.2338 89.2497C90.6859 89.733 89.9806 89.9998 89.25 90H66" stroke="#8F26FF" stroke-width="2" stroke-linecap="round" stroke-linejoin="round"/>
</g>
<defs>
<clipPath id="clip0_2_2138">
<rect width="48" height="48" fill="white" transform="translate(51 51)"/>
</clipPath>
</defs>
</svg>
